<?xml version="1.0" standalone="no"?>
<!DOCTYPE svg PUBLIC "-//W3C//DTD SVG 20010904//EN"
 "http://www.w3.org/TR/2001/REC-SVG-20010904/DTD/svg10.dtd">
<svg version="1.0" xmlns="http://www.w3.org/2000/svg"
 width="505.000000pt" height="420.000000pt" viewBox="0 0 505.000000 420.000000"
 preserveAspectRatio="xMidYMid meet">

<g transform="translate(0.000000,420.000000) scale(0.100000,-0.100000)"
fill="#000000" stroke="none">
<path d="M3289 4171 c-20 -16 -24 -28 -23 -73 2 -58 50 -197 72 -205 19 -8 89
26 143 69 57 44 93 100 84 128 -14 43 -89 34 -136 -16 -29 -31 -39 -30 -39 1
0 14 -7 42 -15 62 -24 57 -47 66 -86 34z m37 -27 c-9 -8 -16 -24 -16 -35 0
-10 -5 -19 -11 -19 -14 0 -2 52 14 62 21 13 29 8 13 -8z"/>
<path d="M1933 4038 c-6 -7 -14 -23 -18 -36 l-7 -23 -30 26 c-24 20 -33 23
-44 14 -8 -6 -14 -16 -14 -21 0 -6 6 -6 14 1 11 9 15 6 18 -14 5 -22 3 -24
-11 -14 -9 7 3 -7 26 -30 23 -22 48 -41 55 -41 38 0 72 140 37 148 -9 1 -20
-3 -26 -10z"/>
<path d="M1710 3435 c-240 -80 -532 -239 -747 -407 -438 -342 -749 -820 -883
-1358 -55 -221 -63 -294 -64 -575 -1 -285 9 -385 64 -610 30 -125 111 -370
128 -387 17 -17 391 184 784 419 197 118 358 216 358 219 0 3 -27 36 -60 74
-134 156 -244 352 -297 525 -24 80 -27 107 -27 240 -1 172 12 235 70 352 62
123 174 212 311 248 81 21 214 19 307 -5 194 -49 318 -162 360 -327 l12 -45
84 89 c49 51 100 116 119 152 l34 64 -21 16 c-18 14 -22 31 -28 123 l-7 106
-44 7 c-89 13 -173 68 -199 131 -30 71 -71 467 -90 857 -4 92 -10 137 -18 137
-6 -1 -72 -21 -146 -45z m-240 -462 c-1 -24 -2 -26 -11 -10 -5 9 -7 22 -4 27
10 17 15 11 15 -17z m43 -422 c-3 -10 3 -31 12 -45 10 -15 13 -26 6 -26 -6 0
-18 14 -26 31 -13 24 -14 34 -4 45 15 19 18 18 12 -5z"/>
<path d="M3216 3388 c-3 -40 -8 -113 -11 -163 -18 -270 -62 -591 -97 -703 -30
-98 -102 -167 -188 -181 l-35 -6 -3 -90 c-2 -61 -8 -95 -17 -105 -13 -15 -9
-19 43 -44 31 -15 109 -40 172 -57 63 -16 131 -40 151 -54 l37 -24 88 45 c226
114 443 91 582 -60 65 -72 96 -126 131 -233 101 -301 32 -669 -180 -954 -107
-145 -276 -277 -422 -331 -32 -12 -65 -31 -73 -44 -33 -50 -92 -52 -141 -5
-40 38 -31 75 43 174 86 115 130 131 190 72 30 -30 31 -67 2 -113 l-22 -36 79
43 c236 127 402 342 491 636 25 82 27 105 28 260 1 149 -2 180 -22 250 -33
113 -77 191 -148 261 -68 68 -128 96 -225 108 -97 12 -285 -41 -357 -100 -20
-17 -22 -23 -13 -47 25 -64 5 -161 -42 -208 -38 -38 -84 -39 -121 -3 -47 47
-29 119 49 203 l46 49 -27 21 c-25 20 -41 25 -146 52 -140 34 -255 89 -241
113 5 8 3 8 -8 0 -18 -14 -137 -54 -162 -54 -10 0 -27 10 -36 21 -15 18 -21
20 -39 10 -31 -16 -38 -9 -46 45 -5 40 -2 54 24 99 16 29 29 64 28 79 -2 26
-3 26 -90 26 l-88 0 0 -104 0 -104 -27 -10 c-16 -6 -37 -13 -49 -16 -11 -4
-25 -21 -32 -40 -24 -65 -95 -162 -183 -247 -68 -66 -89 -93 -89 -113 0 -35
-25 -95 -52 -123 -25 -27 -55 -29 -86 -7 -38 26 -28 59 39 129 59 62 61 65 54
104 -10 62 -68 173 -109 209 -79 69 -209 118 -341 128 -141 11 -264 -28 -355
-113 -159 -147 -213 -443 -129 -706 51 -160 177 -373 301 -510 l53 -58 195
121 c107 67 207 131 223 142 15 11 27 17 27 13 0 -3 16 3 36 13 36 19 38 19
108 0 39 -11 103 -22 142 -25 75 -6 80 -3 119 62 10 16 22 12 133 -44 135 -68
178 -76 212 -39 24 26 40 79 33 108 -5 17 -1 20 26 20 46 0 68 15 92 62 25 49
21 99 -12 134 -22 23 -22 24 -4 57 29 55 15 93 -72 193 -42 48 -70 85 -61 81
50 -19 104 -27 160 -25 35 1 108 -7 163 -17 92 -17 110 -18 202 -5 141 18 189
11 230 -34 43 -47 43 -80 -3 -147 -35 -52 -35 -55 -19 -79 33 -50 48 -96 49
-150 1 -49 -3 -60 -33 -96 l-35 -41 0 -109 c-1 -102 -3 -112 -29 -152 -35 -54
-127 -122 -242 -178 -139 -67 -192 -76 -444 -72 l-216 3 -125 -69 c-69 -38
-161 -92 -205 -119 -120 -75 -498 -327 -517 -346 -16 -15 94 -16 1610 -14 895
1 1688 2 1762 3 l135 1 -107 55 c-60 30 -108 58 -108 62 0 4 13 41 29 82 128
333 178 751 136 1141 -90 851 -615 1586 -1400 1964 -86 41 -344 145 -360 145
-2 0 -6 -33 -9 -72z m107 -688 c-3 -11 -9 -17 -14 -15 -10 7 -1 35 11 35 5 0
6 -9 3 -20z m9 -287 c-7 -3 -18 -17 -24 -32 -6 -14 -12 -21 -15 -14 -7 19 16
53 35 52 11 0 13 -2 4 -6z"/>
<path d="M2965 3420 c-3 -5 0 -57 6 -116 16 -131 1 -397 -36 -651 -13 -92 -22
-169 -19 -172 3 -4 19 10 35 29 41 49 76 168 94 318 20 169 44 541 38 575 -5
25 -9 27 -59 27 -29 0 -56 -4 -59 -10z"/>
<path d="M2653 2322 c10 -10 17 -32 17 -49 0 -17 7 -36 15 -43 13 -11 15 -5
15 49 l0 61 -32 0 c-29 0 -30 -1 -15 -18z"/>
<path d="M3218 1853 c-42 -43 -72 -106 -63 -133 7 -21 31 -33 54 -25 38 12 70
111 54 168 l-8 28 -37 -38z"/>
<path d="M1937 1661 c-30 -37 -34 -51 -12 -51 16 0 48 55 43 72 -2 6 -16 -4
-31 -21z"/>
</g>
</svg>
