<?xml version="1.0" standalone="no"?>
<!DOCTYPE svg PUBLIC "-//W3C//DTD SVG 20010904//EN"
 "http://www.w3.org/TR/2001/REC-SVG-20010904/DTD/svg10.dtd">
<svg version="1.0" xmlns="http://www.w3.org/2000/svg"
 width="1200.000000pt" height="1200.000000pt" viewBox="0 0 1200.000000 1200.000000"
 preserveAspectRatio="xMidYMid meet">

<g transform="translate(0.000000,1200.000000) scale(0.100000,-0.100000)"
fill="#000000" stroke="none">
<path d="M9310 10695 l0 -95 -90 0 -90 0 0 -90 0 -90 90 0 89 0 3 -92 3 -93
93 -3 92 -3 0 96 0 95 90 0 90 0 0 90 0 90 -90 0 -90 0 0 95 0 95 -95 0 -95 0
0 -95z"/>
<path d="M2765 10362 c-3 -3 -5 -45 -5 -94 l0 -88 -90 0 -90 0 0 -95 0 -94 88
1 c48 1 86 -2 85 -5 -2 -4 -3 -124 -3 -267 l0 -260 -476 0 c-527 0 -525 0
-559 -64 -24 -44 -14 -94 26 -132 l30 -29 492 -3 492 -3 -2 -3211 c-2 -1766
-4 -3212 -5 -3213 -2 -2 -40 -21 -86 -44 -97 -49 -272 -165 -380 -253 -165
-135 -322 -309 -466 -515 l-58 -83 56 0 c31 0 56 4 56 9 0 5 40 62 89 127 143
191 326 367 526 506 76 54 255 161 255 154 0 -2 -29 -59 -64 -127 -36 -68 -84
-171 -106 -228 -43 -109 -103 -315 -115 -395 l-7 -46 41 0 c36 0 41 3 47 28
56 247 116 413 227 625 l62 117 50 0 c46 0 88 17 106 43 14 20 217 -104 374
-230 167 -133 331 -319 444 -501 l48 -77 51 -3 52 -3 -48 81 c-109 188 -299
410 -474 557 -93 78 -237 173 -341 228 l-77 40 0 3208 0 3207 370 0 370 0 0
-25 c0 -18 5 -25 20 -25 15 0 20 7 20 25 0 24 3 25 63 26 85 1 108 10 134 48
35 52 31 105 -11 147 l-34 34 27 1 c35 2 27 2 104 -6 56 -6 67 -4 67 9 0 38
-175 49 -249 16 -41 -19 -66 -20 -462 -20 l-419 0 0 268 0 268 60 -4 60 -4 0
96 0 96 -90 0 -90 0 0 94 0 94 -90 -1 c-49 0 -92 -3 -95 -5z"/>
<path d="M4228 9210 c2 -17 10 -30 18 -30 9 0 14 11 14 30 0 22 -5 30 -18 30
-15 0 -18 -6 -14 -30z"/>
<path d="M9907 8603 c-4 -3 -7 -46 -7 -95 l0 -88 -90 0 -91 0 3 -91 3 -91 88
-1 87 0 0 -93 0 -94 95 0 95 0 0 96 0 95 88 -2 87 -2 3 91 3 92 -91 0 -90 0 0
95 0 95 -88 0 c-49 0 -92 -3 -95 -7z"/>
<path d="M4040 8395 c-99 -14 -137 -23 -333 -74 -65 -17 -132 -31 -148 -31
l-29 0 0 -195 c0 -195 0 -196 -25 -220 -13 -14 -36 -25 -50 -25 -14 0 -37 11
-50 25 -25 24 -25 26 -25 214 l0 189 -56 4 c-35 2 -58 -1 -61 -8 -2 -6 -3
-213 -1 -460 3 -431 4 -451 24 -494 22 -48 88 -114 132 -132 15 -6 54 -13 87
-17 l60 -6 7 -66 c12 -131 95 -245 218 -303 64 -30 68 -31 215 -31 190 0 236
15 330 110 70 70 101 136 112 236 l6 59 51 0 c96 0 191 67 231 164 13 30 15
113 15 509 l0 475 -49 21 c-27 11 -87 30 -133 42 -110 27 -390 35 -528 14z
m468 -75 c76 -13 168 -46 175 -64 3 -7 1 -19 -3 -26 -7 -12 -20 -10 -72 8 -82
28 -194 44 -288 40 -66 -3 -75 -1 -78 16 -2 10 2 22 10 27 18 12 180 11 256
-1z m-115 -1179 c-4 -96 -82 -206 -180 -259 -100 -52 -223 -79 -223 -49 0 8
24 18 64 26 175 35 281 135 310 294 10 52 32 43 29 -12z"/>
<path d="M7891 8163 c-72 -97 -94 -148 -89 -210 13 -155 220 -163 245 -9 7 45
-19 121 -62 182 -19 27 -35 59 -35 71 0 35 -13 28 -59 -34z"/>
<path d="M8133 7803 c-198 -231 -439 -564 -555 -768 -163 -288 -225 -481 -213
-669 10 -169 40 -266 119 -385 86 -129 213 -226 361 -277 112 -38 277 -45 392
-16 319 81 533 357 533 688 0 110 -39 305 -86 433 -44 119 -119 261 -192 366
-245 351 -307 480 -300 625 2 38 2 70 1 70 -1 0 -28 -30 -60 -67z"/>
<path d="M5570 7040 l0 -90 -90 0 -90 0 0 -95 0 -95 90 0 90 0 0 -90 0 -90 95
0 95 0 0 90 0 90 90 0 90 0 0 95 0 95 -90 0 -90 0 0 90 0 90 -95 0 -95 0 0
-90z"/>
<path d="M3976 6263 c-14 -115 -18 -754 -7 -933 70 -1061 372 -1620 891 -1647
171 -9 238 8 660 170 341 130 600 212 818 259 84 18 139 23 257 23 260 0 329
-34 604 -299 200 -192 229 -215 336 -268 92 -46 169 -72 296 -100 93 -20 131
-22 349 -22 228 0 254 2 379 28 474 97 810 307 952 595 25 51 29 65 18 72 -23
14 -25 12 -58 -56 -142 -288 -517 -505 -1006 -582 -148 -23 -453 -23 -582 1
-161 29 -303 80 -402 143 -30 19 -134 113 -233 208 -256 249 -343 302 -545
327 -236 30 -643 -71 -1277 -317 -133 -51 -268 -100 -301 -109 -282 -72 -503
-18 -683 167 -262 271 -401 776 -431 1572 -9 220 1 732 14 793 4 18 1 22 -19
22 -21 0 -25 -6 -30 -47z"/>
<path d="M9000 5778 l0 -93 -92 0 -93 0 -3 -92 -3 -93 96 0 95 0 0 -92 0 -93
90 0 90 0 0 93 0 92 95 0 95 0 0 96 0 95 -92 -2 -93 -2 -3 92 -3 91 -89 0 -90
0 0 -92z"/>
<path d="M6205 5793 c-297 -35 -501 -94 -740 -215 -452 -228 -761 -597 -807
-966 -15 -117 -4 -202 51 -375 56 -174 90 -296 110 -397 l18 -85 51 -3 c98 -6
289 39 433 102 l37 15 -27 53 c-34 65 -44 137 -31 209 22 116 37 134 437 534
430 429 428 428 576 434 83 3 91 1 162 -32 l74 -35 53 20 c74 28 187 34 265
14 131 -33 141 -41 578 -477 l411 -409 474 0 c265 0 506 -5 545 -10 39 -6 98
-24 133 -40 81 -38 179 -134 215 -212 20 -42 31 -56 43 -51 31 12 145 160 182
236 40 83 39 83 106 57 l25 -9 -29 -65 c-43 -96 -104 -181 -192 -267 l-77 -77
47 -7 c219 -33 423 -213 492 -434 15 -48 21 -55 46 -58 16 -3 94 -17 174 -34
79 -16 148 -29 152 -29 4 0 8 -13 8 -29 0 -28 1 -29 39 -24 56 8 108 -4 131
-29 15 -17 20 -35 20 -77 -1 -82 -14 -95 -108 -101 -77 -5 -77 -5 -80 -35 l-3
-30 -162 -28 c-221 -39 -204 -34 -211 -72 -20 -103 -171 -316 -234 -330 -15
-3 -40 -18 -54 -34 -44 -47 -218 -101 -324 -101 l-44 0 0 48 0 48 90 12 c150
20 253 73 348 177 108 118 142 224 142 445 0 223 -35 329 -145 448 -98 106
-192 153 -344 173 -50 6 -91 15 -91 19 0 3 -51 -19 -113 -49 -527 -261 -1239
-268 -1627 -15 -36 23 -78 56 -94 73 -29 30 -33 31 -116 31 -79 0 -89 2 -109
24 -20 21 -22 33 -19 83 2 32 7 65 11 73 6 14 -65 80 -150 139 -30 20 -35 21
-60 7 -69 -36 -141 -131 -168 -221 -11 -35 -17 -41 -46 -45 l-34 -5 -3 -657
-2 -658 -65 0 -65 0 2 625 c2 344 0 625 -4 625 -13 0 -58 -67 -73 -109 -13
-37 -15 -124 -15 -568 0 -504 1 -526 20 -565 11 -23 20 -45 20 -50 0 -4 -25
-8 -55 -8 -36 0 -55 4 -55 12 0 7 -215 228 -479 493 -409 410 -482 488 -505
537 -36 79 -49 148 -44 239 l5 77 -66 -25 c-87 -33 -216 -60 -323 -69 l-88 -7
0 -61 c0 -33 -7 -128 -15 -211 -22 -232 -28 -473 -16 -665 15 -260 48 -394
147 -592 30 -59 54 -110 54 -113 0 -2 -136 -6 -302 -8 l-303 -2 310 -3 c310
-2 310 -2 324 -24 47 -77 166 -221 259 -315 505 -508 1260 -742 1732 -536 146
64 294 105 444 124 117 14 384 7 581 -16 196 -22 471 -29 605 -16 402 41 778
193 1231 497 147 99 234 169 337 272 392 393 541 943 417 1533 -13 63 -27 124
-31 137 -6 20 -3 22 34 22 l41 0 3 93 3 92 90 1 90 2 3 91 3 91 -96 0 -95 0 0
95 0 96 -90 -2 -89 -1 -3 -92 c-3 -82 -5 -91 -23 -94 -15 -2 -28 12 -54 60
-200 368 -468 609 -679 610 -57 0 -75 -6 -200 -65 -158 -76 -231 -101 -341
-118 -301 -46 -688 152 -1556 795 -71 53 -167 122 -213 152 -328 217 -693 327
-1075 323 -78 -1 -155 -4 -172 -6z m2792 -2593 l103 0 0 -455 0 -455 -110 0
-110 0 0 85 c0 78 -2 85 -20 85 -20 0 -20 7 -20 320 0 275 -2 320 -15 320 -12
0 -14 -29 -11 -197 1 -109 1 -253 -1 -320 -4 -109 -6 -123 -22 -123 -9 0 -22
-5 -28 -11 -7 -7 -19 -9 -27 -6 -14 6 -16 46 -16 332 0 207 -4 325 -10 325 -6
0 -11 -121 -12 -327 l-3 -328 -162 -3 -163 -2 0 330 c0 287 -2 330 -15 330
-13 0 -15 -43 -15 -330 l0 -330 -45 0 -45 0 0 330 c0 287 -2 330 -15 330 -13
0 -15 -43 -15 -330 l0 -330 -45 0 -45 0 0 330 c0 287 -2 330 -15 330 -13 0
-15 -43 -15 -330 l0 -330 -45 0 -45 0 0 330 c0 306 -7 393 -24 288 -4 -24 -6
-171 -5 -328 l1 -285 -46 -3 -46 -3 0 330 c0 288 -2 331 -15 331 -13 0 -15
-43 -15 -330 l0 -330 -45 0 -45 0 0 330 c0 210 -4 330 -10 330 -6 0 -11 -121
-12 -327 l-3 -328 -45 0 -45 0 -2 305 c-2 168 -3 315 -3 328 0 12 -4 22 -10
22 -6 0 -10 -117 -10 -331 l0 -330 -47 3 -48 3 -3 328 c-1 206 -6 327 -12 327
-6 0 -10 -120 -10 -330 l0 -330 -45 0 -45 0 0 330 c0 287 -2 330 -15 330 -13
0 -15 -43 -15 -330 l0 -330 -45 0 -45 0 0 330 c0 287 -2 330 -15 330 -13 0
-15 -43 -15 -330 l0 -330 -45 0 -45 0 0 330 c0 287 -2 330 -15 330 -13 0 -15
-43 -15 -330 l0 -330 -45 0 -45 0 0 331 c0 260 -3 330 -12 326 -10 -3 -13 -78
-13 -330 l0 -327 -67 0 -68 0 0 380 0 380 923 3 c507 2 955 2 996 0 41 -2 121
-3 178 -3z m665 -205 c-9 -112 -71 -264 -143 -350 -80 -96 -190 -159 -301
-172 -101 -12 -102 27 -1 46 148 27 269 121 336 261 36 76 67 178 67 222 0 29
9 40 30 35 11 -2 14 -13 12 -42z m-2132 -695 c0 -109 -2 -130 -15 -130 -12 0
-15 15 -15 78 0 97 10 182 21 182 5 0 9 -58 9 -130z m1230 60 l0 -70 -610 0
-610 0 0 70 0 70 610 0 610 0 0 -70z m-2290 -85 l0 -105 -70 0 -70 0 0 105 0
105 70 0 70 0 0 -105z m-150 -11 l0 -44 -70 0 -70 0 0 48 0 47 70 -3 70 -4 0
-44z m-247 -1 c-57 -2 -149 -2 -205 0 -57 1 -11 3 102 3 113 0 159 -2 103 -3z
m2687 -123 l0 -69 -310 -3 -310 -3 0 63 0 62 -54 0 c-30 0 -58 -4 -61 -10 -4
-6 -97 -10 -246 -10 -232 0 -239 1 -239 20 0 20 7 20 610 20 l610 0 0 -70z
m338 25 c-2 -25 0 -45 5 -45 4 0 17 20 29 45 22 45 22 45 75 45 l53 0 -20 -51
c-43 -108 -129 -200 -235 -250 -86 -41 -95 -39 -95 19 l0 49 67 34 c92 47 94
61 7 58 l-69 -3 -3 31 c-2 18 -10 37 -18 43 -8 7 -14 25 -14 41 l0 29 111 0
111 0 -4 -45z m-1623 15 c12 -5 -41 -9 -140 -9 -107 -1 -155 3 -145 9 18 12
257 12 285 0z m-308 -6 c-3 -3 -12 -4 -19 -1 -8 3 -5 6 6 6 11 1 17 -2 13 -5z
m-376 -141 c1 -71 3 -120 6 -110 4 16 42 17 613 17 377 0 611 -4 615 -10 3 -5
3 -39 -1 -75 l-7 -65 -608 0 -609 0 -1 28 -2 27 -4 -27 c-5 -35 -23 -37 -23
-3 l0 25 -177 0 c-236 0 -412 21 -376 43 22 14 198 27 366 27 l177 0 0 79 c0
94 10 171 21 171 5 0 10 -57 10 -127z m1235 57 l1 -70 -613 0 -614 0 0 70 0
70 613 0 612 0 1 -70z m-2296 -95 l0 -115 -70 0 -70 0 0 115 0 115 70 0 70 0
0 -115z m-150 0 l0 -45 -70 0 -70 0 0 45 0 45 70 0 70 0 0 -45z m-222 -2 c-43
-2 -113 -2 -155 0 -43 1 -8 3 77 3 85 0 120 -2 78 -3z m3442 -93 l0 -40 -75 0
c-41 0 -74 -3 -74 -7 3 -21 -3 -35 -31 -67 -55 -62 -113 -56 -180 20 -28 32
-34 35 -42 21 -12 -23 -27 -21 -70 8 -31 21 -48 25 -112 25 l-76 0 0 40 0 40
330 0 330 0 0 -40z"/>
<path d="M7275 4516 c-117 -45 -316 -177 -422 -279 l-42 -40 56 -23 57 -23 70
63 c94 83 158 128 236 165 73 35 117 40 127 15 10 -25 -8 -44 -58 -63 -43 -17
-156 -87 -209 -130 l-25 -21 321 0 320 0 -180 180 c-99 99 -182 180 -185 180
-4 -1 -33 -11 -66 -24z"/>
<path d="M6668 4047 c-50 -57 -174 -216 -191 -243 -4 -7 10 -3 31 7 20 11 56
25 80 31 39 10 45 15 73 74 17 36 54 88 84 120 30 31 49 57 42 59 -60 18 -64
17 -119 -48z"/>
<path d="M7060 4071 c0 -5 10 -16 23 -24 12 -8 50 -43 85 -76 l63 -61 460 0
460 0 24 -25 c33 -33 36 -119 4 -159 l-20 -26 -352 0 c-399 -1 -386 4 -222
-76 163 -79 363 -116 605 -113 228 3 423 36 624 106 163 57 346 151 346 178 0
35 -53 129 -97 172 -59 59 -118 89 -203 102 -81 13 -1800 15 -1800 2z"/>
<path d="M5449 3943 c-13 -16 -12 -17 4 -4 16 13 21 21 13 21 -2 0 -10 -8 -17
-17z"/>
<path d="M4305 3550 c-3 -6 -5 -47 -4 -91 l2 -82 -91 2 -92 2 0 -95 0 -95 92
-3 92 -3 -3 -92 -3 -93 96 0 96 0 0 95 0 95 89 0 90 0 3 91 c2 50 1 93 -1 95
-2 2 -44 4 -93 4 l-88 0 0 90 0 90 -89 0 c-50 0 -93 -5 -96 -10z"/>
<path d="M6297 3505 c-20 -42 -125 -203 -138 -211 -5 -3 7 -19 26 -36 19 -16
35 -33 35 -37 0 -3 -16 -15 -36 -26 -41 -22 -84 -89 -84 -131 l0 -29 -46 48
-45 47 -60 -52 c-32 -29 -59 -55 -59 -58 0 -3 97 -102 215 -220 l215 -215 0
133 c0 116 -2 132 -16 132 -9 0 -52 35 -95 77 -70 68 -79 81 -79 112 0 49 37
109 83 135 l38 21 30 -33 c17 -19 32 -32 35 -29 2 2 3 95 2 207 -3 203 -3 203
-21 165z"/>
</g>
</svg>
