<?xml version="1.0" standalone="no"?>
<!DOCTYPE svg PUBLIC "-//W3C//DTD SVG 20010904//EN"
 "http://www.w3.org/TR/2001/REC-SVG-20010904/DTD/svg10.dtd">
<svg version="1.0" xmlns="http://www.w3.org/2000/svg"
 width="1920.000000pt" height="1920.000000pt" viewBox="0 0 1920.000000 1920.000000"
 preserveAspectRatio="xMidYMid meet">

<g transform="translate(0.000000,1920.000000) scale(0.100000,-0.100000)"
fill="#000000" stroke="none">
<path d="M15070 17094 c-94 -12 -290 -58 -356 -85 -414 -164 -725 -489 -853
-894 -59 -183 -66 -234 -66 -450 0 -156 4 -219 18 -285 23 -107 80 -277 119
-355 36 -71 117 -199 129 -203 5 -2 9 -10 9 -18 0 -7 57 -71 128 -142 89 -91
157 -148 227 -195 375 -247 839 -309 1256 -168 218 73 390 181 559 350 196
197 306 387 374 651 40 151 49 246 43 418 -8 218 -50 393 -139 575 -40 83
-129 225 -164 262 -11 11 -40 45 -66 76 -92 110 -272 246 -434 327 -86 43
-255 99 -359 117 -87 16 -354 28 -425 19z m198 -675 c136 -6 250 -13 254 -17
4 -4 3 -102 -2 -217 -5 -115 -8 -211 -6 -213 2 -2 332 -19 430 -22 8 0 4 -175
-11 -468 l-6 -124 -217 7 -217 7 -6 -68 c-4 -38 -7 -107 -7 -154 0 -47 -3
-115 -7 -153 l-6 -67 -176 6 c-97 3 -189 7 -206 9 -16 2 -70 4 -119 4 l-88 1
7 220 7 219 -24 5 c-13 3 -108 7 -212 11 -104 3 -193 8 -199 12 -5 3 -6 54 -3
122 3 64 8 193 12 286 3 94 9 173 13 177 3 4 101 3 216 -2 150 -6 211 -6 216
2 4 6 8 65 8 132 1 67 4 130 6 141 2 11 4 50 4 88 l1 67 45 0 c25 0 157 -5
293 -11z"/>
<path d="M10002 16144 c-63 -50 -62 -34 -62 -708 0 -601 0 -612 21 -645 53
-87 82 -93 405 -89 l261 3 42 28 c83 55 80 31 81 711 0 680 3 652 -80 709 -22
15 -58 17 -330 17 l-305 0 -33 -26z m618 -344 l0 -30 -280 0 -281 0 -8 23 c-5
12 -7 25 -4 30 2 4 132 7 289 7 l284 0 0 -30z m-2 -195 l3 -30 -283 2 c-247 3
-283 5 -286 19 -10 44 -8 44 285 42 l278 -3 3 -30z m4 -200 c-2 -14 -9 -25
-16 -25 -6 0 -132 -1 -281 -1 -238 0 -270 2 -273 16 -9 39 -4 40 290 37 l285
-3 -5 -24z"/>
<path d="M6880 16035 c-159 -27 -297 -74 -425 -145 -268 -149 -784 -672 -907
-919 -61 -124 -47 -253 44 -408 55 -93 60 -114 43 -185 -7 -33 -16 -63 -20
-66 -3 -3 -24 -5 -46 -3 -23 1 -53 -3 -69 -9 -22 -9 -39 -8 -81 5 -185 55
-428 26 -532 -65 -133 -117 -219 -350 -221 -600 0 -89 5 -145 17 -196 57 -225
224 -340 425 -293 78 18 241 104 335 175 49 37 132 109 185 160 54 51 98 89
100 84 10 -30 125 -199 196 -290 119 -151 178 -249 220 -365 6 -17 9 -17 15
-5 13 22 39 175 80 461 l37 257 -38 32 c-74 61 -99 152 -78 281 24 153 73 265
135 307 52 37 75 30 173 -53 l89 -74 6 -88 c20 -267 129 -432 285 -433 l43 0
-30 38 c-44 56 -61 127 -61 261 0 127 17 256 55 429 26 115 46 152 83 152 35
0 208 32 301 56 228 59 471 198 544 310 12 18 27 34 32 34 6 0 26 -28 45 -61
64 -113 184 -211 303 -249 20 -6 74 -17 120 -23 l82 -12 -3 -40 c-1 -22 -5
-51 -8 -64 -5 -21 -6 -22 -22 -8 -27 25 -88 47 -127 47 -27 0 -44 -8 -66 -29
-36 -37 -37 -62 -1 -101 37 -41 149 -70 196 -50 17 7 79 16 137 20 90 5 116
11 165 36 102 51 151 145 125 241 -6 26 -19 56 -28 65 -14 16 -15 39 -7 200
21 431 0 570 -124 813 -61 119 -161 223 -240 248 -125 40 -372 46 -636 17
l-97 -11 -82 35 c-199 85 -460 117 -667 81z"/>
<path d="M7583 14575 c-115 -32 -209 -104 -239 -181 -15 -40 -15 -47 -2 -60
12 -13 25 -12 104 7 56 13 133 22 209 25 135 4 168 14 185 55 21 49 -10 113
-70 144 -43 22 -128 27 -187 10z"/>
<path d="M10074 14298 c-134 -267 -262 -720 -369 -1312 -19 -105 -46 -243 -60
-306 -14 -63 -28 -127 -30 -143 -10 -55 -98 -345 -147 -487 -28 -80 -51 -152
-52 -160 0 -8 -4 -17 -7 -20 -3 -3 -32 -75 -64 -160 -74 -197 -281 -690 -378
-902 -20 -42 -33 -79 -30 -82 4 -3 1 -6 -5 -6 -7 0 -12 -4 -12 -10 0 -5 -18
-52 -41 -102 -22 -51 -44 -102 -49 -113 -112 -254 -183 -442 -174 -457 4 -6 3
-8 -3 -5 -13 8 -54 -128 -46 -149 3 -9 21 28 43 93 47 138 74 206 171 430 44
100 79 184 79 187 0 3 14 36 31 73 78 171 130 287 174 393 26 63 72 169 101
236 29 66 69 163 89 215 20 52 42 108 50 124 7 17 22 57 33 90 12 33 33 92 47
130 37 99 143 415 149 445 3 14 17 66 31 115 39 141 91 374 125 564 17 95 42
221 55 280 13 58 26 122 29 141 11 69 95 387 134 505 44 134 110 300 153 389
31 62 35 76 19 76 -5 0 -26 -33 -46 -72z"/>
<path d="M7611 14174 c-53 -67 -34 -264 26 -272 33 -5 60 30 73 93 21 100 -10
205 -60 205 -10 0 -28 -12 -39 -26z"/>
<path d="M8164 14115 c-20 -49 -19 -194 1 -202 40 -15 82 83 69 161 -13 83
-45 101 -70 41z"/>
<path d="M12980 13994 c-84 -22 -175 -70 -259 -138 l-76 -61 -55 12 c-168 35
-393 -4 -593 -101 -251 -122 -409 -355 -424 -623 -6 -100 9 -217 28 -229 5 -3
64 39 131 93 l123 98 80 1 c177 2 321 83 286 160 -13 30 -47 38 -124 31 l-62
-5 30 24 c17 14 59 39 95 57 58 28 74 32 150 32 102 0 146 -17 236 -92 33 -28
74 -58 92 -67 l32 -16 -20 -38 c-27 -50 -27 -142 1 -202 57 -126 149 -175 195
-105 28 43 15 159 -28 246 l-35 71 151 -4 c130 -3 158 -7 201 -26 99 -45 155
-125 162 -230 7 -96 -17 -161 -130 -353 -178 -307 -244 -454 -254 -569 -10
-118 40 -178 138 -167 63 8 89 23 134 77 51 61 138 125 198 144 62 20 146 21
174 1 67 -47 47 -202 -43 -333 -40 -58 -170 -158 -250 -194 -39 -17 -60 -19
-111 -15 -59 6 -63 5 -68 -16 -2 -12 -23 -166 -45 -342 -22 -176 -47 -365 -55
-420 -8 -55 -11 -102 -7 -106 4 -3 48 -37 97 -75 118 -90 345 -312 454 -444
259 -311 441 -636 573 -1020 62 -181 61 -207 -8 -520 -65 -294 -157 -582 -328
-1032 -14 -38 -23 -68 -21 -68 3 0 23 37 44 83 21 45 104 222 183 392 256 546
350 749 368 790 10 22 67 148 128 280 425 926 770 1724 972 2250 98 254 116
305 164 454 126 394 124 633 -10 874 -36 64 -149 207 -169 214 -7 2 -12 -20
-13 -54 -5 -138 -48 -301 -168 -635 -155 -433 -255 -676 -344 -839 -113 -206
-185 -293 -278 -336 -139 -65 -623 -28 -907 69 -76 26 -160 62 -174 74 -12 10
398 628 535 804 181 235 289 810 215 1147 -21 95 -63 198 -105 253 -45 59
-546 538 -628 600 -90 68 -198 123 -283 145 -74 19 -222 18 -295 -1z"/>
<path d="M7410 13264 c0 -104 48 -177 158 -242 39 -22 59 -27 117 -27 88 0
152 33 228 115 60 66 110 147 84 137 -9 -3 -56 -9 -104 -13 -153 -11 -417 30
-464 72 -19 17 -19 16 -19 -42z"/>
<path d="M11827 12930 c-16 -5 -43 -20 -61 -34 -60 -46 -84 -136 -36 -136 25
0 141 90 160 124 14 25 13 28 -4 42 -22 16 -20 16 -59 4z"/>
<path d="M12417 12689 c-82 -54 -145 -139 -132 -180 16 -50 94 -19 177 69 50
53 67 95 51 121 -17 26 -46 23 -96 -10z"/>
<path d="M2930 12670 c-16 -10 -13 -27 34 -205 93 -351 344 -1744 540 -3000
30 -192 85 -537 121 -765 36 -228 86 -548 110 -710 126 -838 195 -1282 200
-1291 9 -13 41 -11 53 4 13 15 -32 326 -218 1532 -332 2155 -585 3623 -720
4180 -60 249 -76 283 -120 255z"/>
<path d="M10500 11460 c-12 -7 -10 -9 7 -7 12 0 19 5 17 9 -6 10 -6 10 -24 -2z"/>
<path d="M10464 11428 c-3 -4 5 -5 17 -3 30 6 36 14 9 12 -12 -1 -24 -5 -26
-9z"/>
<path d="M10260 11219 c0 -5 5 -7 10 -4 6 3 10 8 10 11 0 2 -4 4 -10 4 -5 0
-10 -5 -10 -11z"/>
<path d="M10236 11202 c-3 -5 1 -9 9 -9 8 0 12 4 9 9 -3 4 -7 8 -9 8 -2 0 -6
-4 -9 -8z"/>
<path d="M9556 11012 c-3 -5 1 -9 9 -9 8 0 12 4 9 9 -3 4 -7 8 -9 8 -2 0 -6
-4 -9 -8z"/>
<path d="M9552 10974 c-7 -8 -8 -14 -3 -14 10 0 25 19 20 25 -2 1 -10 -3 -17
-11z"/>
<path d="M13498 9423 c7 -3 16 -2 19 1 4 3 -2 6 -13 5 -11 0 -14 -3 -6 -6z"/>
<path d="M9171 9413 c0 -5 4 -17 9 -28 8 -17 8 -16 7 8 -1 15 -5 27 -9 27 -4
0 -8 -3 -7 -7z"/>
<path d="M9150 9329 c-7 -11 -9 -23 -6 -27 3 -3 6 1 6 9 0 12 2 12 9 0 7 -10
9 -7 8 12 -2 32 -3 33 -17 6z"/>
<path d="M9766 9307 c3 -10 9 -15 12 -12 3 3 0 11 -7 18 -10 9 -11 8 -5 -6z"/>
<path d="M8635 9280 c-87 -14 -105 -19 -975 -273 l-145 -42 88 -5 c70 -4 91
-9 102 -23 13 -18 16 -18 82 2 37 11 122 34 188 50 66 16 163 41 215 55 52 13
185 48 294 76 109 28 212 58 228 66 41 21 109 84 102 95 -6 11 -108 10 -179
-1z"/>
<path d="M9100 9205 c-6 -8 -10 -19 -8 -24 1 -6 8 1 15 14 13 28 11 31 -7 10z"/>
<path d="M9006 9004 c-3 -9 -4 -19 -1 -22 3 -3 5 1 6 9 0 8 4 6 9 -6 6 -13 9
-15 9 -5 0 8 -3 21 -8 28 -6 11 -10 10 -15 -4z"/>
<path d="M10520 8790 c0 -5 5 -10 11 -10 5 0 7 5 4 10 -3 6 -8 10 -11 10 -2 0
-4 -4 -4 -10z"/>
<path d="M12417 8735 c-4 -8 -3 -16 1 -19 4 -3 9 4 9 15 2 23 -3 25 -10 4z"/>
<path d="M11608 8333 c7 -3 16 -2 19 1 4 3 -2 6 -13 5 -11 0 -14 -3 -6 -6z"/>
<path d="M8670 8295 c-11 -13 -10 -14 4 -9 9 3 16 10 16 15 0 13 -6 11 -20 -6z"/>
<path d="M11975 8189 c-4 -6 -5 -12 -2 -15 2 -3 7 2 10 11 7 17 1 20 -8 4z"/>
<path d="M11741 7744 c0 -11 3 -14 6 -6 3 7 2 16 -1 19 -3 4 -6 -2 -5 -13z"/>
<path d="M7600 7643 c-727 -52 -1055 -107 -1350 -228 -120 -49 -284 -128 -350
-170 -73 -46 -211 -158 -270 -221 -163 -173 -272 -384 -313 -607 -15 -77 -14
-78 7 -91 11 -7 113 -63 226 -124 267 -143 674 -375 920 -523 8 -4 112 -66
230 -135 523 -309 1132 -691 1670 -1046 371 -246 697 -473 1348 -941 l264
-189 651 5 c706 6 912 15 1487 63 310 26 852 89 935 110 16 4 54 77 160 307
76 166 228 484 337 706 l198 404 -39 52 c-22 29 -55 79 -73 112 l-33 59 -75
-15 c-50 -9 -147 -14 -290 -14 -226 -1 -371 16 -535 63 -38 11 -80 17 -94 13
-14 -3 -55 -34 -91 -68 -75 -72 -142 -117 -215 -144 -74 -28 -503 -72 -1030
-105 -126 -8 -279 -18 -340 -22 -60 -4 -458 -8 -882 -9 l-773 -1 -72 -71
c-110 -106 -179 -132 -269 -101 -76 25 -115 75 -122 155 -6 57 -15 67 -90 101
-77 35 -97 66 -97 150 0 53 -7 65 -64 106 -52 39 -80 103 -71 165 17 121 122
378 212 521 61 96 88 117 189 150 107 34 519 145 842 227 122 31 229 61 238
68 14 10 4 16 -62 40 -134 48 -281 113 -464 204 -270 135 -467 254 -815 491
-217 147 -498 324 -654 410 -132 73 -300 151 -321 148 -8 -1 -35 -3 -60 -5z"/>
<path d="M15450 7570 c-13 -8 -15 -51 -16 -282 -1 -299 -15 -468 -64 -775
-149 -920 -519 -1837 -1104 -2737 -43 -65 -79 -116 -81 -115 -2 2 8 45 21 94
155 572 149 1191 -16 1804 -23 85 -42 108 -79 96 -11 -3 -22 -13 -25 -22 -4
-9 12 -88 34 -177 80 -321 105 -528 104 -851 -1 -322 -36 -579 -115 -848 -80
-272 -150 -422 -265 -570 -221 -283 -496 -597 -766 -873 -158 -161 -175 -187
-143 -214 28 -23 62 0 196 137 394 405 667 726 967 1138 106 145 177 230 257
310 332 328 729 560 1100 641 99 21 352 30 455 15 168 -25 355 -94 511 -188
87 -52 91 -54 115 -38 57 37 10 84 -181 179 -210 105 -393 149 -630 148 -266
0 -511 -65 -785 -209 -155 -82 -254 -148 -459 -307 -8 -6 -12 -6 -9 -1 3 6 37
64 75 130 126 217 182 321 328 612 79 159 170 329 203 378 186 285 432 518
685 647 277 142 567 179 881 113 78 -17 106 -9 106 30 0 32 -30 50 -105 64
-542 99 -1024 -80 -1432 -531 -35 -38 -63 -65 -63 -61 0 4 16 53 36 108 43
121 134 425 175 590 118 465 184 1031 164 1400 -6 115 -10 140 -26 156 -21 21
-28 23 -49 9z"/>
<path d="M11656 7483 c-6 -14 -5 -15 5 -6 7 7 10 15 7 18 -3 3 -9 -2 -12 -12z"/>
<path d="M11866 7334 c-3 -8 -9 -13 -14 -10 -4 2 -8 -4 -8 -15 0 -19 1 -18 18
3 17 22 23 38 14 38 -2 0 -7 -7 -10 -16z"/>
<path d="M11816 7268 c3 -5 10 -6 15 -3 13 9 11 12 -6 12 -8 0 -12 -4 -9 -9z"/>
<path d="M11785 7219 c-4 -6 -5 -12 -2 -15 2 -3 7 2 10 11 7 17 1 20 -8 4z"/>
<path d="M11684 7189 c-3 -6 -2 -15 3 -20 5 -5 9 -1 9 11 0 23 -2 24 -12 9z"/>
<path d="M10931 7160 c14 -31 19 -36 19 -24 0 6 -7 19 -16 30 -14 18 -14 18
-3 -6z"/>
<path d="M11723 7165 c-15 -17 -17 -29 -3 -20 15 9 12 -4 -8 -33 -46 -67 -37
-66 12 1 15 20 22 37 17 37 -6 0 -8 7 -5 15 8 19 3 19 -13 0z"/>
<path d="M11660 7040 c-8 -5 -12 -12 -9 -15 4 -3 12 1 19 10 14 17 11 19 -10
5z"/>
<path d="M11625 7029 c-4 -6 -5 -12 -2 -15 2 -3 7 2 10 11 7 17 1 20 -8 4z"/>
<path d="M11610 6979 c0 -9 -6 -20 -12 -22 -8 -4 -9 -6 -2 -6 7 -1 19 10 27
22 13 20 13 24 1 24 -8 0 -14 -8 -14 -18z"/>
<path d="M11524 6917 c1 -19 6 -22 24 -19 12 2 25 8 28 13 3 5 -3 6 -12 2 -10
-4 -22 0 -29 11 -12 15 -13 15 -11 -7z"/>
<path d="M11470 6870 c-20 -6 -21 -8 -5 -8 11 0 31 4 45 8 20 6 21 8 5 8 -11
0 -31 -4 -45 -8z"/>
<path d="M11238 6863 c6 -2 18 -2 25 0 6 3 1 5 -13 5 -14 0 -19 -2 -12 -5z"/>
<path d="M11358 6863 c7 -3 16 -2 19 1 4 3 -2 6 -13 5 -11 0 -14 -3 -6 -6z"/>
<path d="M11365 6845 c-54 -17 -33 -18 30 -1 28 8 41 14 30 14 -11 0 -38 -5
-60 -13z"/>
<path d="M11269 6843 c10 -4 4 -12 -20 -24 l-34 -19 30 7 c31 6 47 21 39 35
-3 4 -11 8 -17 7 -7 0 -6 -3 2 -6z"/>
<path d="M11150 6790 c-18 -12 -2 -12 25 0 13 6 15 9 5 9 -8 0 -22 -4 -30 -9z"/>
<path d="M11100 6782 c0 -5 7 -9 15 -9 8 0 12 4 9 9 -3 4 -9 8 -15 8 -5 0 -9
-4 -9 -8z"/>
<path d="M13026 6498 c3 -5 10 -6 15 -3 13 9 11 12 -6 12 -8 0 -12 -4 -9 -9z"/>
<path d="M13000 6470 c-7 -14 -7 -20 0 -20 5 0 10 7 10 16 0 9 5 12 12 8 7 -4
8 -3 4 4 -10 16 -14 15 -26 -8z"/>
<path d="M13020 6445 c-7 -8 -15 -13 -19 -11 -4 3 -7 -4 -7 -15 0 -10 1 -19 1
-19 1 0 11 14 23 30 23 31 24 42 2 15z"/>
<path d="M13090 6421 c0 -6 4 -13 10 -16 6 -3 7 1 4 9 -7 18 -14 21 -14 7z"/>
<path d="M12936 6363 c-6 -14 -5 -15 5 -6 7 7 10 15 7 18 -3 3 -9 -2 -12 -12z"/>
<path d="M12870 6268 c-65 -78 -133 -169 -129 -172 88 -68 165 -131 207 -169
30 -27 56 -47 58 -45 7 7 134 269 134 277 0 4 -6 15 -13 25 -12 16 -17 17 -36
6 -28 -14 -95 -5 -85 12 5 8 0 9 -16 5 -14 -4 -41 3 -71 19 -46 23 -68 44 -33
30 11 -4 15 -2 11 8 -3 7 0 19 6 25 6 6 8 13 6 16 -3 2 -21 -14 -39 -37z m250
-88 c0 -5 -8 -10 -17 -10 -15 0 -16 2 -3 10 19 12 20 12 20 0z"/>
<path d="M12936 6243 c-6 -14 -5 -15 5 -6 7 7 10 15 7 18 -3 3 -9 -2 -12 -12z"/>
</g>
</svg>
